<svg xmlns="http://www.w3.org/2000/svg" width="255" height="68" viewBox="0 0 255 68">
  <metadata><?xpacket begin="﻿" id="W5M0MpCehiHzreSzNTczkc9d"?>
<x:xmpmeta xmlns:x="adobe:ns:meta/" x:xmptk="Adobe XMP Core 5.6-c142 79.160924, 2017/07/13-01:06:39        ">
   <rdf:RDF xmlns:rdf="http://www.w3.org/1999/02/22-rdf-syntax-ns#">
      <rdf:Description rdf:about=""/>
   </rdf:RDF>
</x:xmpmeta>
                                                                                                    
                                                                                                    
                                                                                                    
                                                                                                    
                                                                                                    
                                                                                                    
                                                                                                    
                                                                                                    
                                                                                                    
                                                                                                    
                                                                                                    
                                                                                                    
                                                                                                    
                                                                                                    
                                                                                                    
                                                                                                    
                                                                                                    
                                                                                                    
                                                                                                    
                                                                                                    
                           
<?xpacket end="w"?></metadata>
<defs>
    <style>
      .cls-1, .cls-2 {
        fill: #a57b1b;
      }

      .cls-1 {
        fill-rule: evenodd;
      }
    </style>
  </defs>
  <path id="PARIMIS" class="cls-1" d="M16.182,3.587q4.175,0,6.287,1.917a6.84,6.84,0,0,1,2.112,5.334A7.672,7.672,0,0,1,22.6,16.417a7.1,7.1,0,0,1-5.347,2.039,15.307,15.307,0,0,1-3.589-.537l0.488,1.831a18.338,18.338,0,0,0,3.662.464,12.7,12.7,0,0,0,6.018-1.489,11.153,11.153,0,0,0,4.358-3.943,9.492,9.492,0,0,0,1.538-5.115A7.076,7.076,0,0,0,27.07,3.856q-2.686-2.148-8.594-2.148-1.148,0-3.369.1-3.369.146-6.128,0.146-4.687,0-7.739-.122V3.368H2.461q2.417,0,3.04.708T6.172,7.933l0.073,5.054V26.024Q6.1,31.956,5.977,33.116a2.358,2.358,0,0,1-.562,1.538,3.365,3.365,0,0,1-1.978.378H1.24v1.538Q6.831,36.4,9.028,36.4q2.49,0,6.811.171V35.033H14.155q-2.442,0-2.881-.879t-0.439-8.227V11.986q0-3.979.171-7.5a17,17,0,0,1,5.176-.9h0ZM66.138,31.639a9.745,9.745,0,0,1,.732,2.295,0.815,0.815,0,0,1-.366.684,4.338,4.338,0,0,1-1.538.269l-2.417.146v1.538Q67.017,36.4,69.7,36.4q2.881,0,6.055.171V35.033a7.92,7.92,0,0,1-2.417-.354,2.467,2.467,0,0,1-.952-0.854,28.293,28.293,0,0,1-1.66-3.528L58.374,1.561h-1.66Q55.737,4.3,53.052,10.35L46.338,25.56q-1.807,4.078-3.54,7.593a3.549,3.549,0,0,1-1.062,1.5,5.318,5.318,0,0,1-2.209.354l-0.733.024v1.538q2.661-.171,6.177-0.171,2.93,0,5.273.171V35.033L47.9,34.764a3.682,3.682,0,0,1-1.55-.391,0.971,0.971,0,0,1-.305-0.806,20.038,20.038,0,0,1,1.636-4.785l1.655-3.931H63.459ZM56.4,8.183L62.545,22.85h-12.3Zm54.287,7.147a8.615,8.615,0,0,0,2.478-6.079,7.036,7.036,0,0,0-1.135-4.028,7.1,7.1,0,0,0-3.321-2.576,17.757,17.757,0,0,0-6.408-.891q-1.539,0-5.054.122Q94.219,2,92.607,2q-2.393,0-6.934-.171V3.368h1.318q2.49,0,2.942.9t0.452,8.472V24.486q0,8.716-.391,9.631t-2.49.916H85.674v1.538q5.493-.171,7.593-0.171,2.661,0,6.714.171V35.033h-1.9q-2.271,0-2.686-.94t-0.415-9.558V12.743q0-4.419.293-8.3a14.835,14.835,0,0,1,5.151-.952,8.126,8.126,0,0,1,5.64,1.77,6.3,6.3,0,0,1,1.953,4.919,7.222,7.222,0,0,1-2.307,5.615,9.138,9.138,0,0,1-6.385,2.1q-0.684,0-2.1-.122l-0.244.83q2.759,3.076,5.176,6.3l8.643,11.67a26.55,26.55,0,0,1,2.93-.171q1.513,0,3.54.171V35.033h-0.635a1.808,1.808,0,0,1-.855-0.22,8.7,8.7,0,0,1-1.66-1.782l-4.687-6.079q-3.54-4.565-5.933-8.008A13.256,13.256,0,0,0,110.686,15.331Zm15.935,21.24q3.325-.171,7.459-0.171,3.546,0,6.555.171V35.033h-1.62q-2.257,0-2.675-.964t-0.417-10.461V15.184q0-6.689.123-9.3a3.391,3.391,0,0,1,.515-2.1,3.617,3.617,0,0,1,2.184-.415h1.89V1.83Q137.944,2,134.643,2q-3.961,0-8.022-.171V3.368H128.6q1.953,0,2.343,1t0.391,10.767v8.276q0,9.424-.452,10.522t-2.722,1.1h-1.538v1.538Zm59.819-9.62q0,6.4-.4,7.239t-2.332.842H182.1v1.538q3.735-.171,7.153-0.171,3.1,0,6.494.171V35.033h-1.4q-2.307,0-2.81-.879t-0.5-6.836V9.471q0-4.614.479-5.359t2.638-.745h1.595V1.83Q191.983,2,190.542,2q-1.245,0-4.3-.171-4.006,9.039-7.134,15.463l-5.936,12.239-6.428-13.216Q162.886,8.4,159.929,1.83,157.364,2,155.973,2q-1.1,0-5.348-.171V3.368h1.294a4.727,4.727,0,0,1,2.478.439,1.721,1.721,0,0,1,.72,1.27,61.522,61.522,0,0,1,.22,6.616V25.511q0,3.955-.317,7.373a2.5,2.5,0,0,1-.66,1.685,3.476,3.476,0,0,1-2.148.464h-1.587v1.538q4.6-.171,6.141-0.171,2.129,0,5.529.171V35.033h-0.908q-2.75,0-3.276-.891t-0.528-7.485V7.781l8.748,18.11q4.276,8.994,5.18,11.169h0.977q2.614-6.353,6.695-14.856L186.44,7.1V26.951Zm19.317,9.62q3.325-.171,7.459-0.171,3.546,0,6.555.171V35.033h-1.62q-2.258,0-2.675-.964t-0.417-10.461V15.184q0-6.689.122-9.3a3.382,3.382,0,0,1,.516-2.1,3.614,3.614,0,0,1,2.184-.415h1.89V1.83Q217.08,2,213.779,2q-3.963,0-8.022-.171V3.368h1.977q1.953,0,2.344,1t0.391,10.767v8.276q0,9.424-.452,10.522t-2.722,1.1h-1.538v1.538Zm41.374-34.7a23.341,23.341,0,0,0-4.9-.525q-6.078,0-9.521,3.027a9.9,9.9,0,0,0-3.443,7.788,9.068,9.068,0,0,0,1.124,4.7,6.688,6.688,0,0,0,3.1,2.771q1.977,0.879,7.5,1.318a20.89,20.89,0,0,1,5.689,1,5.152,5.152,0,0,1,2.392,2.014,6.078,6.078,0,0,1,.855,3.308,6.975,6.975,0,0,1-2.515,5.518q-2.514,2.173-7.129,2.173a15.326,15.326,0,0,1-4-.5,9.952,9.952,0,0,1-3.2-1.453,3.2,3.2,0,0,1-1.147-1.2,10.016,10.016,0,0,1-.245-2.93V27.66h-1.66a50.628,50.628,0,0,1-.415,7.519,29.549,29.549,0,0,0,4.8,1.4,24.034,24.034,0,0,0,4.724.476q6.836,0,10.937-3.542a10.819,10.819,0,0,0,4.1-8.451,8.106,8.106,0,0,0-1.062-4.225,6.29,6.29,0,0,0-2.832-2.589,24.8,24.8,0,0,0-6.8-1.295,29.089,29.089,0,0,1-6.579-1.1,5.179,5.179,0,0,1-2.466-2.023,5.994,5.994,0,0,1-.915-3.352,6.46,6.46,0,0,1,2.233-5.07A8.952,8.952,0,0,1,241.9,3.441a13.482,13.482,0,0,1,4.553.769,6.219,6.219,0,0,1,2.673,1.453,4.6,4.6,0,0,1,.513,2.588V10.2h1.684a28.07,28.07,0,0,1,.733-6.738A25.882,25.882,0,0,0,247.131,1.866Z"/>
  <path id="Hotel" class="cls-1" d="M76.533,57.187q2.566,0,4.219.082V60.32q0,2.312-.129,3.521a1.1,1.1,0,0,1-.316.769,2.077,2.077,0,0,1-1.148.205H78.349v0.738q1.7-.082,3.668-0.082,1.723,0,3.34.082V64.816H84.443a1.37,1.37,0,0,1-1.283-.416,18.636,18.636,0,0,1-.205-4.014v-6.48q0-2.824.053-3.357a1.026,1.026,0,0,1,.3-0.732,2.129,2.129,0,0,1,1.154-.2h0.891V48.878q-1.875.082-3.609,0.082-1.606,0-3.4-.082v0.738h0.844a1.946,1.946,0,0,1,1.1.211,0.953,0.953,0,0,1,.316.693,33.7,33.7,0,0,1,.141,3.369v2.289q-1.711.082-4.441,0.082-3.223,0-5.309-.082V53.5a30.162,30.162,0,0,1,.094-3.135,0.8,0.8,0,0,1,.316-0.575,3.027,3.027,0,0,1,1.348-.176h0.5V48.878q-1.594.082-3.27,0.082t-3.6-.082v0.738h0.867a1.44,1.44,0,0,1,1.307.416,13.107,13.107,0,0,1,.229,3.486v7.066a15.724,15.724,0,0,1-.223,3.814,1.65,1.65,0,0,1-1.453.416H66.4v0.738q2.555-.082,3.926-0.082,1.418,0,2.941.082V64.816h-0.8a1.923,1.923,0,0,1-.949-0.176,0.685,0.685,0,0,1-.34-0.346q-0.047-.17-0.117-1.766Q71,61.389,71,60.544V57.269q1.875-.082,5.531-0.082h0Zm20.511,4.559a7.355,7.355,0,0,0,2.908,3.012,8.838,8.838,0,0,0,4.386,1.031,9.23,9.23,0,0,0,6.743-2.625,8.78,8.78,0,0,0,2.674-6.527,7.63,7.63,0,0,0-2.305-5.807,8.869,8.869,0,0,0-6.361-2.186A9.238,9.238,0,0,0,98.462,51a8.159,8.159,0,0,0-2.486,6.211A9.407,9.407,0,0,0,97.043,61.745Zm2.086-9.006a5.426,5.426,0,0,1,2.135-2.3,6.369,6.369,0,0,1,3.237-.785,6.839,6.839,0,0,1,3.554.891,6.1,6.1,0,0,1,2.364,2.654,9.606,9.606,0,0,1,.862,4.248,9.365,9.365,0,0,1-.78,4.02,5.629,5.629,0,0,1-2.141,2.484,5.967,5.967,0,0,1-3.178.832A6.311,6.311,0,0,1,101.7,63.8a6.732,6.732,0,0,1-2.434-2.941,10.878,10.878,0,0,1-.909-4.611A7.62,7.62,0,0,1,99.129,52.74Zm34.279-2.795q1.641,0,2.93.094a0.883,0.883,0,0,1,.574.182,2.2,2.2,0,0,1,.2.943l0.118,1.535h0.738q0.035-1.84.258-3.82l-6.481.082q-1.113,0-7.441-.082,0.141,1.582.14,2.426L124.42,52.7h0.738l0.164-1.57a1.316,1.316,0,0,1,.386-1.049,17.356,17.356,0,0,1,3.18-.135h1.192q0.082,1.652.082,3.633v6.691q0,2.168-.117,3.539a1.219,1.219,0,0,1-.293.8,1.66,1.66,0,0,1-1.008.205H127.76v0.738q2.038-.082,3.492-0.082t3.516,0.082V64.816h-0.879a1.491,1.491,0,0,1-1.336-.381,20.817,20.817,0,0,1-.188-4.107v-6.68q0-1.945.129-3.7h0.914ZM155.571,57.5a9.893,9.893,0,0,1,3.1.252,1.533,1.533,0,0,1,.44,1.377v0.68h0.8q-0.083-1.512-.082-2.625,0-1.055.082-2.824h-0.8v0.762a1.323,1.323,0,0,1-.369,1.2,12.627,12.627,0,0,1-3.159.193q-0.889,0-2.05-.082V54.062l0.023-1.8q0.036-1.1.024-2.2,1.756-.14,3.363-0.14a9.785,9.785,0,0,1,3.4.516,14.782,14.782,0,0,1,.129,2.145h0.8a13.059,13.059,0,0,1,.492-3.621q-1.113-.094-2.2-0.082l-2.133.014-4.5.068q-0.539,0-1.582-.041l-1.242-.041h-1.266v0.738l0.9,0.094a3.229,3.229,0,0,1,1.008.188,0.684,0.684,0,0,1,.252.3,5.442,5.442,0,0,1,.164,1.2q0.075,1.008.076,2.59v6.434q0,2.52-.088,3.258a1.4,1.4,0,0,1-.352.938,2.531,2.531,0,0,1-1.283.2h-0.363v0.738q2.272-.082,3.644-0.082,1.43,0,4.477.082l1.84,0.035q1.3,0,2.648-.117l-0.023-.529q0-.858.316-3.432h-0.773q-0.306,1.547-.6,2.578a5.565,5.565,0,0,1-1.22.3,17.362,17.362,0,0,1-2.207.117q-1.959,0-3.673-.129-0.036-.716-0.036-2.266l-0.011-1.655V57.585q1.054-.082,2.039-0.082h0Zm22.139,6.211-0.035-3.3V52.945a13.183,13.183,0,0,1,.164-2.971,0.772,0.772,0,0,1,.785-0.357h1.453V48.878q-2.087.082-3.305,0.082-0.913,0-3.7-.082v0.738h1.278a0.927,0.927,0,0,1,.955.4,21.407,21.407,0,0,1,.17,3.92v6.445a20.154,20.154,0,0,1-.17,3.715,1.908,1.908,0,0,1-1.108.879V65.6q2.379-.129,3.5-0.129l5.578,0.094a18.443,18.443,0,0,0,2.883-.176q0.163-1.922.457-4.137h-0.762l-0.7,2.754a12,12,0,0,1-1.793.34q-1.242.117-3.445,0.117-1.091,0-2.238-.059Z"/>
  <rect class="cls-2" x="-1" y="42" width="256" height="2"/>
</svg>
